<?xml version="1.0" ?><!DOCTYPE svg  PUBLIC '-//W3C//DTD SVG 1.1//EN'  'http://www.w3.org/Graphics/SVG/1.1/DTD/svg11.dtd'><svg enable-background="new 0 0 512 512" id="Layer_1" version="1.1" viewBox="0 0 512 512" xml:space="preserve" xmlns="http://www.w3.org/2000/svg" xmlns:xlink="http://www.w3.org/1999/xlink"><g><path d="M512,256c0,141.4-114.6,256-256,256S0,397.4,0,256S114.6,0,256,0C397.4,0,512,114.6,512,256z" fill="#FF9900"/><path d="M285.7,188.6c-7.4,0.6-16,1.2-24.6,2.3c-13.1,1.7-26.3,4-37.2,9.1   c-21.2,8.6-35.5,26.9-35.5,53.8c0,33.8,21.7,51,49.2,51c9.2,0,16.6-1.1,23.4-2.8c10.9-3.4,20-9.7,30.9-21.2   c6.3,8.6,8,12.6,18.9,21.8c2.9,1.2,5.7,1.2,8-0.6c6.9-5.7,18.9-16,25.2-21.8c2.9-2.3,2.3-5.7,0.6-8.6c-6.3-8-12.6-14.9-12.6-30.3   v-51.6c0-21.8,1.7-41.8-14.3-56.7c-13.1-12-33.7-16.6-49.7-16.6c-2.3,0-4.6,0-6.9,0c-29.2,1.7-60,14.3-66.9,50.4   c-1.1,4.6,2.3,6.3,4.6,6.9l32,4c3.4-0.6,5.1-3.4,5.7-6.3c2.9-12.6,13.2-18.9,24.6-20c0.6,0,1.2,0,2.3,0c6.8,0,14.3,2.9,18.3,8.6   c4.6,6.9,4,16.1,4,24.1L285.7,188.6L285.7,188.6z M285.7,221.8c0,13.2,0.6,23.5-6.3,34.9c-4,8-10.9,13.2-18.3,14.9   c-1.1,0-2.8,0.6-4.6,0.6c-12.6,0-20-9.7-20-24.1c0-18.3,10.9-26.9,24.6-30.9c7.4-1.7,16-2.3,24.6-2.3L285.7,221.8L285.7,221.8z    M391,382.6c14-11.8,19.9-33.3,20.2-44.5v-1.9c0-2.5-0.6-4.4-1.2-5.3c-2.8-3.4-23.3-6.5-41-1.3c-5,1.6-9.3,3.7-13.4,6.5   c-3.1,2.2-2.5,5,0.6,4.7c3.4-0.6,7.8-0.9,12.7-1.6c10.9-0.9,23.6-1.2,26.7,2.8c4.3,5.3-5,28.3-9,38.3   C385.5,383.6,388.2,384.8,391,382.6z M105.6,338.1c40.1,36.4,92.9,58.2,151.9,58.2c36.7,0,78.9-10.3,111.5-29.9   c4.4-2.5,8.7-5.3,12.7-8.4c5.6-4,0.6-10.3-5-7.8c-2.5,0.9-5.3,2.2-7.8,3.1c-35.7,14-73.3,20.6-108.1,20.6   c-55.3,0-108.7-15.3-151.9-40.5C104.9,331.3,102.1,335.3,105.6,338.1z" fill="#FFFFFF" id="Amazon_3_"/></g></svg>